<!DOCTYPE svg PUBLIC "-//W3C//DTD SVG 1.1//EN" "http://www.w3.org/Graphics/SVG/1.1/DTD/svg11.dtd">
<!-- Uploaded to: SVG Repo, www.svgrepo.com, Transformed by: SVG Repo Mixer Tools -->
<svg height="800px" width="800px" version="1.1" id="_x32_" xmlns="http://www.w3.org/2000/svg" xmlns:xlink="http://www.w3.org/1999/xlink" viewBox="-179.2 -179.2 870.40 870.40" xml:space="preserve" fill="#000000">
<g id="SVGRepo_bgCarrier" stroke-width="0"/>
<g id="SVGRepo_tracerCarrier" stroke-linecap="round" stroke-linejoin="round"/>
<g id="SVGRepo_iconCarrier"> <style type="text/css"> .st0{fill:#000000;} </style> <g> <path class="st0" d="M232.448,333.374c-10.089,0-18.268,8.189-18.268,18.277c0,10.09,8.179,18.269,18.268,18.269 c10.089,0,18.278-8.179,18.278-18.269C250.726,341.563,242.538,333.374,232.448,333.374z"/> <path class="st0" d="M317.071,333.374c-10.089,0-18.269,8.189-18.269,18.277c0,10.09,8.18,18.269,18.269,18.269 c10.088,0,18.277-8.179,18.277-18.269C335.348,341.563,327.159,333.374,317.071,333.374z"/> <path class="st0" d="M401.674,333.374c-10.088,0-18.268,8.189-18.268,18.277c0,10.09,8.18,18.269,18.268,18.269 c10.098,0,18.277-8.179,18.277-18.269C419.951,341.563,411.772,333.374,401.674,333.374z"/> <path class="st0" d="M232.448,273.823c-10.089,0-18.268,8.188-18.268,18.278c0,10.088,8.179,18.268,18.268,18.268 c10.089,0,18.278-8.179,18.278-18.268C250.726,282.011,242.538,273.823,232.448,273.823z"/> <path class="st0" d="M317.071,273.823c-10.089,0-18.269,8.188-18.269,18.278c0,10.088,8.18,18.268,18.269,18.268 c10.088,0,18.277-8.179,18.277-18.268C335.348,282.011,327.159,273.823,317.071,273.823z"/> <path class="st0" d="M401.674,273.823c-10.088,0-18.268,8.188-18.268,18.278c0,10.088,8.18,18.268,18.268,18.268 c10.098,0,18.277-8.179,18.277-18.268C419.951,282.011,411.772,273.823,401.674,273.823z"/> <path class="st0" d="M232.448,214.29c-10.089,0-18.268,8.189-18.268,18.278c0,10.088,8.179,18.268,18.268,18.268 c10.089,0,18.278-8.18,18.278-18.268C250.726,222.479,242.538,214.29,232.448,214.29z"/> <path class="st0" d="M317.071,214.29c-10.089,0-18.269,8.189-18.269,18.278c0,10.088,8.18,18.268,18.269,18.268 c10.088,0,18.277-8.18,18.277-18.268C335.348,222.479,327.159,214.29,317.071,214.29z"/> <path class="st0" d="M401.674,214.29c-10.088,0-18.268,8.189-18.268,18.278c0,10.088,8.18,18.268,18.268,18.268 c10.098,0,18.277-8.18,18.277-18.268C419.951,222.479,411.772,214.29,401.674,214.29z"/> <path class="st0" d="M402.592,149.02H233.386c-10.383,0-18.801,8.418-18.801,18.8c0,10.383,8.418,18.801,18.801,18.801h169.207 c10.382,0,18.801-8.418,18.801-18.801C421.393,157.438,412.974,149.02,402.592,149.02z"/> <path class="st0" d="M408.881,58.44v0.009H156.676c-16.424-18.461-40.3-30.285-66.95-30.285l-0.881,0.01 C39.309,28.183,0.019,68.428,0,117.964v262.752c0.019,56.88,46.231,103.102,103.12,103.12h305.761 c56.88-0.019,103.101-46.241,103.119-103.12V161.569C511.982,104.68,465.76,58.459,408.881,58.44z M32.892,117.964 c0-30.901,25.053-55.953,55.953-55.953h0.881c30.9,0,55.953,25.052,55.953,55.953v161.799c0,30.9-25.053,55.952-55.953,55.952 h-0.881c-30.9,0-55.953-25.052-55.953-55.952V117.964z M478.162,380.716c0,38.262-31.02,69.282-69.282,69.282H103.12 c-38.262,0-69.282-31.019-69.282-69.282v-37.409c14.771,12.806,33.976,20.609,55.008,20.609h0.881 c46.406,0,84.154-37.748,84.154-84.153v-23.015V145.706V92.287h235.001c38.262,0,69.282,31.02,69.282,69.282V380.716z"/> </g> </g>
</svg>